<?xml version="1.0" encoding="UTF-8" standalone="no"?>
<!-- Created with Inkscape (http://www.inkscape.org/) -->

<svg
   width="8.4584007mm"
   height="8.4583979mm"
   viewBox="0 0 8.4584007 8.4583979"
   version="1.1"
   id="svg1"
   xmlns="http://www.w3.org/2000/svg"
   xmlns:svg="http://www.w3.org/2000/svg">
  <defs
     id="defs1">
    <clipPath
       id="88b188531f">
      <path
         d="M 225.04687,9 H 246 v 21.003906 h -20.95313 z m 0,0"
         clip-rule="nonzero"
         id="path1" />
    </clipPath>
    <clipPath
       id="41f9c6649c">
      <path
         d="m 240,6.027344 h 9.02344 V 15 H 240 Z m 0,0"
         clip-rule="nonzero"
         id="path2" />
    </clipPath>
  </defs>
  <g
     id="layer1"
     transform="translate(-100.80625,-144.19791)">
    <g
       clip-path="url(#88b188531f)"
       id="g3"
       transform="matrix(0.35277777,0,0,0.35277777,21.414716,142.0716)">
      <path
         fill="#000000"
         d="m 236.41016,13.074219 -1.08985,-3.621094 -1.08594,3.621094 c -0.19531,0.660156 -0.47265,1.28125 -0.82421,1.871093 -0.35157,0.589844 -0.76954,1.128907 -1.25391,1.613282 -0.48828,0.488281 -1.02344,0.90625 -1.61328,1.257812 -0.58985,0.351563 -1.21485,0.628906 -1.875,0.824219 l -3.6211,1.089844 3.6211,1.085937 c 0.66015,0.195313 1.28515,0.472656 1.87109,0.824219 0.58985,0.351563 1.12891,0.769531 1.61328,1.257813 0.48828,0.484374 0.90625,1.023437 1.25782,1.613281 0.35156,0.585937 0.6289,1.210937 0.82421,1.871093 l 1.08594,3.621094 1.08985,-3.621094 c 0.19531,-0.660156 0.47265,-1.28125 0.82421,-1.871093 0.35157,-0.589844 0.76954,-1.128907 1.25782,-1.613281 0.48437,-0.484376 1.02343,-0.90625 1.61328,-1.257813 0.58594,-0.351563 1.21094,-0.625 1.87109,-0.824219 l 3.6211,-1.085937 -3.6211,-1.089844 c -0.66015,-0.195313 -1.28125,-0.472656 -1.87109,-0.824219 -0.58985,-0.351562 -1.12891,-0.769531 -1.61328,-1.257812 -0.48828,-0.484375 -0.90625,-1.023438 -1.25782,-1.613282 -0.35156,-0.589843 -0.6289,-1.210937 -0.82421,-1.871093 z m 0,0"
         fill-opacity="1"
         fill-rule="nonzero"
         id="path3" />
    </g>
    <g
       clip-path="url(#41f9c6649c)"
       id="g4"
       transform="matrix(0.35277777,0,0,0.35277777,21.414716,142.0716)">
      <path
         fill="#000000"
         d="M 247.51172,9.855469 C 246.95703,9.691406 246.47266,9.402344 246.0625,8.988281 245.65234,8.578125 245.36328,8.09375 245.19531,7.539062 l -0.45312,-1.511718 -0.45313,1.511718 c -0.16797,0.554688 -0.45703,1.039063 -0.86719,1.449219 -0.41015,0.414063 -0.89453,0.703125 -1.45312,0.867188 l -1.50781,0.453125 1.50781,0.453125 c 0.55859,0.167969 1.04297,0.457031 1.45312,0.867187 0.41016,0.414063 0.69922,0.894532 0.86719,1.453125 l 0.45313,1.507813 0.45312,-1.507813 c 0.16797,-0.558593 0.45703,-1.042969 0.86719,-1.453125 0.41016,-0.410156 0.89453,-0.699218 1.44922,-0.867187 l 1.51172,-0.453125 z m 0,0"
         fill-opacity="1"
         fill-rule="nonzero"
         id="path4" />
    </g>
  </g>
</svg>
